<svg width="20" height="20" viewBox="0 0 20 20" fill="none" xmlns="http://www.w3.org/2000/svg">
  <path fill-rule="evenodd" clip-rule="evenodd" d="M11 5.94634C11 5.88904 10.9868 5.83251 10.9615 5.78109C10.9362 5.72967 10.8995 5.68473 10.8541 5.64972L6.72913 2.46222C6.66342 2.41138 6.5827 2.38379 6.49962 2.38379C6.41655 2.38379 6.33583 2.41138 6.27012 2.46222L2.14513 5.64972C2.0999 5.68481 2.06331 5.72978 2.03815 5.7812C2.013 5.83261 1.99995 5.8891 2 5.94634V12.0088C2 12.1083 2.03951 12.2037 2.10984 12.274C2.18016 12.3443 2.27554 12.3838 2.375 12.3838H5.375C5.42473 12.3838 5.47242 12.3641 5.50758 12.3289C5.54275 12.2938 5.5625 12.2461 5.5625 12.1963V9.50884C5.5625 9.2602 5.66127 9.02175 5.83709 8.84593C6.0129 8.67011 6.25136 8.57134 6.5 8.57134C6.74864 8.57134 6.9871 8.67011 7.16291 8.84593C7.33873 9.02175 7.4375 9.2602 7.4375 9.50884V12.1963C7.4375 12.2461 7.45725 12.2938 7.49242 12.3289C7.52758 12.3641 7.57527 12.3838 7.625 12.3838H10.625C10.7245 12.3838 10.8198 12.3443 10.8902 12.274C10.9605 12.2037 11 12.1083 11 12.0088V5.94634Z" fill="black"/>
</svg>